<svg xmlns="http://www.w3.org/2000/svg" viewBox="593 482 19.404 24"><path d="M9.7,0A6.146,6.146,0,0,0,3.574,6.128V8.681H1.532A1.571,1.571,0,0,0,0,10.213V22.468A1.571,1.571,0,0,0,1.532,24h16.34A1.571,1.571,0,0,0,19.4,22.468V10.213a1.571,1.571,0,0,0-1.532-1.532H15.83V6.128A6.146,6.146,0,0,0,9.7,0Zm0,1.021a5.057,5.057,0,0,1,5.106,5.106V8.681H4.6V6.128A5.057,5.057,0,0,1,9.7,1.021ZM1.532,9.7h16.34a.482.482,0,0,1,.511.511V22.468a.482.482,0,0,1-.511.511H1.532a.482.482,0,0,1-.511-.511V10.213A.482.482,0,0,1,1.532,9.7ZM9.7,13.787A1.5,1.5,0,0,0,8.17,15.319a1.463,1.463,0,0,0,.511,1.123v1.43a1.021,1.021,0,0,0,2.043,0v-1.43a1.463,1.463,0,0,0,.511-1.123A1.5,1.5,0,0,0,9.7,13.787Z" transform="translate(593 482)"/></svg>