<svg xmlns="http://www.w3.org/2000/svg" viewBox="591 482 22.326 24"><path d="M11.163,0A5.6,5.6,0,0,0,5.581,5.581V8.93A5.741,5.741,0,0,0,7.814,13.4v2.512c0,.056,0,.112-.167.223a5.154,5.154,0,0,1-.726.5c-.67.335-1.674.67-2.679,1.172A9.117,9.117,0,0,0,1.4,19.814,5.465,5.465,0,0,0,0,23.442V24H22.326v-.558a5.432,5.432,0,0,0-1.34-3.628A9.117,9.117,0,0,0,18.14,17.8c-1-.5-2.009-.837-2.679-1.172a3.367,3.367,0,0,1-.726-.447c-.112-.112-.223-.223-.223-.279V13.4A5.575,5.575,0,0,0,16.744,8.93V5.581A5.6,5.6,0,0,0,11.163,0Zm0,1.116a4.408,4.408,0,0,1,4.465,4.465V8.93a4.482,4.482,0,0,1-2.009,3.74l-.223.167v3.07a1.382,1.382,0,0,0,.5,1.06,7.834,7.834,0,0,0,1,.67c.781.391,1.73.726,2.679,1.172a8.059,8.059,0,0,1,2.512,1.73,4.5,4.5,0,0,1,1,2.344H1.228a3.928,3.928,0,0,1,1-2.288,8.059,8.059,0,0,1,2.512-1.73c.949-.447,1.9-.837,2.679-1.228a3.167,3.167,0,0,0,1-.67,1.477,1.477,0,0,0,.5-1.06v-3.07l-.223-.167A4.482,4.482,0,0,1,6.7,8.93V5.581A4.408,4.408,0,0,1,11.163,1.116Z" transform="translate(591 482)"/></svg>